<?xml version="1.0" encoding="UTF-8"?><svg id="Layer_2" xmlns="http://www.w3.org/2000/svg" xmlns:xlink="http://www.w3.org/1999/xlink" viewBox="0 0 45.69 43.31"><defs><style>.cls-1{fill:url(#linear-gradient-2);}.cls-2{fill:url(#linear-gradient);}.cls-3{fill:#414ff2;}</style><linearGradient id="linear-gradient" x1="-2.31" y1="41.77" x2="33.84" y2="5.63" gradientUnits="userSpaceOnUse"><stop offset="0" stop-color="#fbb040"/><stop offset=".5" stop-color="#ef4136"/></linearGradient><linearGradient id="linear-gradient-2" x1="8.51" y1="46.45" x2="44.67" y2="10.29" gradientUnits="userSpaceOnUse"><stop offset="0" stop-color="#414ff2"/><stop offset="1" stop-color="#00aeef"/></linearGradient></defs><g id="Layer_1-2"><g><polygon class="cls-3" points="17.34 29.26 8.47 36.36 15.83 26.19 12.03 32.51 17.34 29.26"/><path class="cls-2" d="M17.34,28.97l-6.2,7.42-5.78,6.92L0,30.26l5.36,5.17,10.46-9.53,1.51,3.07Zm9.47-12.8l-10.98,9.73c.22,.28,9-7.63,9-7.17,0,.14-.04,.68-.06,.81l2.04-3.37Z"/><path class="cls-1" d="M45.4,22.73c-.2-.85-.51-1.77-.93-2.76l-3.27,4.84c.31,.85,.62,1.78,.91,2.78,.3,1,.43,1.79,.4,2.36-.71,.31-1.56,.62-2.55,.93-.99,.31-2.01,.59-3.06,.85-1.05,.25-2,.47-2.84,.64l-3.14,5.65c.79-.23,1.75-.47,2.89-.74,1.13-.27,2.24-.56,3.31-.87,1.08-.31,1.94-.64,2.59-.98,.62-.31,1.2-.69,1.72-1.15,.52-.45,1.01-.93,1.46-1.44,1.05-1.22,1.78-2.44,2.19-3.67,.41-1.23,.62-2.4,.62-3.5s-.1-2.08-.3-2.93ZM34.17,0c-.57,.71-1.15,1.43-1.74,2.16-.59,.74-1.17,1.47-1.74,2.21l3.02,2.8c.59-.74,1.18-1.46,1.76-2.19,.58-.72,1.15-1.45,1.72-2.19l-3.01-2.8Zm4.14,16c.01,1.1-.13,2.19-.42,3.25-.3,1.06-.68,2.04-1.15,2.93-.47,.89-.96,1.62-1.46,2.19-1.87,2.07-4.39,3.55-7.56,4.46-1.56,.45-3.08,.76-4.56,.91-1.49,.15-2.92,.16-4.31,.02-.55-.05-1.05-.22-1.5-.5l-11.98,14.05L15.79,25.94l-.56-3.56s0-.05-.02-.06c-.01-.01-.02-.04-.02-.06,0-.42,.54-1.29,1.61-2.59,.57-.71,1.03-1.25,1.4-1.63,.37-.38,.61-.63,.72-.74,.65-.17,1.46-.26,2.42-.26h.42c.88,.03,1.61,.18,2.19,.47,.22,.11,.4,.25,.54,.42,.22,.28,.33,.65,.33,1.1,0,.14-.01,.27-.04,.41-.02,.12-.05,.24-.09,.36-.14,.4-.28,.76-.43,1.08-.14,.33-.3,.62-.47,.87l-.86,1.33-1.17,1.4c.15,.03,.24,.04,.24,.04,1.03,.04,2.07-.01,3.12-.16,1.34-.18,2.64-.45,3.89-.81,1.24-.35,2.36-.71,3.35-1.08,1.75-.68,2.9-1.26,3.44-1.74-.08-.25-.25-.76-.51-1.53-.34-1.05-.64-1.43-.89-1.15-.4,.34-.96,.64-1.68,.89-.72,.25-1.44,.2-2.14-.17-.4-.2-.6-.59-.62-1.19-.02-.59,.08-1.08,.28-1.44,.48-.88,.94-1.77,1.38-2.67,.44-.91,.94-1.75,1.51-2.55,.71-.91,1.47-1.08,2.29-.51,.42,.28,.81,.64,1.15,1.06,.34,.42,.65,.89,.93,1.4,.51,.99,.77,2.04,.79,3.14Z"/></g></g></svg>